<svg xmlns="http://www.w3.org/2000/svg" viewBox="0 0 48 49.13"><g data-name="Capa 2"><g data-name="Capa 1"><path d="M24.48 0c1.67.81 1.41 2.56 1.82 4a9.39 9.39 0 01.44 2.22c.06 1 .74 1.36 1.53 1.57s1.74.46 2.48-.49c.9-1.17 1.93-2.24 2.91-3.34A1.68 1.68 0 0136 3.42a1.83 1.83 0 01.72 2.32c-.47 1.52-.91 3-1.42 4.55-.33 1 .25 1.49.78 2s1.06 1.05 1.94.75c1.47-.52 3-1 4.44-1.47a1.76 1.76 0 012.32.75 1.9 1.9 0 01-.56 2.44c-1.14 1-2.25 2.14-3.43 3.14-.81.69-.49 1.47-.31 2.23s.36 1.47 1.3 1.63c1.46.27 2.9.61 4.35.92 1.19.25 1.82.87 1.84 1.84s-.52 1.65-1.8 1.93c-1.47.32-3 .6-4.41 1a1.6 1.6 0 00-.92.73c-.89 1.73-.75 2.4.63 3.69 1 .89 1.92 1.75 2.86 2.65a1.91 1.91 0 01.46 2.48 1.76 1.76 0 01-2.23.67c-1.48-.48-3-.94-4.44-1.47-.95-.34-1.5.23-2.06.81s-1 1.07-.68 2c.52 1.48.93 3 1.41 4.48a1.86 1.86 0 01-.71 2.38c-.8.52-1.6.33-2.37-.53-1.06-1.17-2.12-2.34-3.13-3.55-.67-.79-1.44-.5-2.19-.31s-1.41.43-1.57 1.37c-.27 1.54-.6 3.07-.93 4.6-.22 1-1 1.79-1.8 1.7a1.87 1.87 0 01-1.79-1.75c-.22-1.27-.5-2.52-.77-3.78-.37-1.75-.78-2.17-2.55-2.3a2.07 2.07 0 00-1.46.57c-1.07 1.08-2 2.27-3 3.42a1.76 1.76 0 01-2.38.54 1.88 1.88 0 01-.73-2.37c.46-1.5.89-3 1.42-4.47.36-1-.21-1.54-.76-2.1s-1.1-1.12-2.06-.75c-1.46.55-3 1-4.44 1.48a1.7 1.7 0 01-2.19-.75 1.76 1.76 0 01.43-2.38c1.15-1.08 2.3-2.15 3.5-3.18.8-.69.56-1.5.35-2.29s-.37-1.51-1.38-1.65c-1.17-.16-2.31-.51-3.48-.71S.44 26.14 0 24.77v-.3a2.75 2.75 0 012.57-1.9c1.24-.21 2.46-.56 3.7-.76.9-.15 1.13-.83 1.3-1.54s.53-1.6-.27-2.27c-1.16-1-2.27-2.11-3.4-3.18a2 2 0 01-.54-2.44 1.8 1.8 0 012.34-.73c1.5.5 3 1 4.51 1.49.87.3 1.35-.31 1.84-.82s1.07-1 .78-1.89c-.49-1.46-.94-2.93-1.4-4.4-.39-1.25-.17-2.13.66-2.59s1.68-.27 2.58.77 1.94 2.17 2.86 3.29c.67.81 1.45.5 2.19.29s1.44-.33 1.59-1.32c.21-1.32.59-2.62.79-3.94A2.88 2.88 0 0123.74 0zM34 38.06a26.34 26.34 0 011.71-2.2 2.47 2.47 0 013-.61 34.94 34.94 0 004 1.31c.35.1.79-.13 1.19-.21-.14-.39-.16-.9-.43-1.16-1.11-1.11-2.34-2.1-3.42-3.25a2.9 2.9 0 01-.76-1.78 7.12 7.12 0 01.52-2.27 2.21 2.21 0 011.84-1.55c1.46-.25 2.91-.56 4.34-.94.35-.09.62-.5.93-.77-.3-.28-.56-.71-.91-.81a24.77 24.77 0 00-4-.86c-1.76-.19-2.3-1.39-2.66-2.88a2.86 2.86 0 011.08-3.26 32.31 32.31 0 002.91-2.71 3.72 3.72 0 00.5-1.18 3.43 3.43 0 00-1.31-.2c-1.17.3-2.31.73-3.46 1.1-2.16.7-3.55.17-4.62-1.92a2.74 2.74 0 01-.17-1.79c.35-1.44.9-2.83 1.28-4.27a4.58 4.58 0 00-.13-1.5A4.16 4.16 0 0034.2 5a41.84 41.84 0 00-2.79 3.15 2.47 2.47 0 01-2.29.94 3.27 3.27 0 01-3.47-3c-.28-1.31-.5-2.63-.83-3.93-.09-.36-.49-.64-.75-1-.28.31-.7.58-.79.94a23.46 23.46 0 00-.77 3.78c-.17 1.89-1.28 2.62-2.9 3a2.75 2.75 0 01-3.14-1 32.68 32.68 0 00-2.59-2.93 4.1 4.1 0 00-1.27-.57 4.41 4.41 0 00-.11 1.43c.29 1.18.71 2.32 1.07 3.47a3.64 3.64 0 01-2.15 4.81 2.22 2.22 0 01-1.42.06c-1.52-.43-3-1-4.52-1.43-.35-.1-.79.12-1.19.19.13.4.16.91.42 1.18 1 1.07 2.15 2.09 3.28 3.08a2.29 2.29 0 01.82 2.3 8.12 8.12 0 01-.74 2.28 2.3 2.3 0 01-1.27 1c-1.52.42-3.09.67-4.62 1.08-.37.09-.65.53-1 .81.33.27.63.69 1 .79 1.16.33 2.35.55 3.54.79 2.13.44 3 1.56 3.09 3.82a2.5 2.5 0 01-.91 2.12c-1.15 1-2.28 2-3.36 3.09-.23.23-.25.68-.36 1 .36.1.77.37 1.08.28 1.52-.43 3-.91 4.51-1.46a1.89 1.89 0 012 .29 8.1 8.1 0 011.72 1.84 2.82 2.82 0 01.25 1.9c-.38 1.56-1 3.08-1.38 4.64-.1.34.16.77.26 1.17.35-.14.81-.17 1.05-.42q1.53-1.61 2.93-3.32a2.37 2.37 0 012.43-1 6.58 6.58 0 012.15.72 2.59 2.59 0 011.06 1.43c.43 1.57.67 3.21 1.06 4.8.08.32.46.55.7.83.27-.28.69-.51.77-.84a45 45 0 001-4.58c.23-1.49 1.3-1.88 2.43-2.2s2.26-.43 3.17.71 1.94 2.29 3 3.38c.26.26.74.3 1.12.45a4.89 4.89 0 00.21-1.28 9.89 9.89 0 00-.5-1.66z"/><path d="M24.66 21.91A2.71 2.71 0 1122 24.59a2.72 2.72 0 012.66-2.68zM26 24.49a1.31 1.31 0 00-1.35-1.26 1.33 1.33 0 00-1.37 1.43A1.31 1.31 0 0024.66 26 1.37 1.37 0 0026 24.49zm-1.12 7.14a2.64 2.64 0 01-.09 5.28 2.64 2.64 0 01.09-5.28zm0 1.3a1.24 1.24 0 00-1.28 1.36 1.19 1.19 0 001.24 1.3 1.21 1.21 0 001.33-1.3 1.25 1.25 0 00-1.32-1.36zm-6.16-18.62a2.58 2.58 0 012.47 2.59 2.51 2.51 0 01-2.52 2.53 2.56 2.56 0 010-5.12zm0 1.3c-.73.09-1.23.45-1.24 1.23a1.14 1.14 0 001.18 1.26 1.1 1.1 0 001.23-1.19 1.21 1.21 0 00-1.16-1.3zm-3.07 14.76a2.49 2.49 0 112.43-2.52 2.46 2.46 0 01-2.43 2.52zm-.23-1.13h.5c.29-.45.76-.87.84-1.35a1 1 0 00-1.08-1.16 1 1 0 00-1.13 1.18c.08.48.56.89.87 1.33zm16.9-12.09a2.35 2.35 0 11-2.39-2.38 2.43 2.43 0 012.39 2.38zm-2.05-1.23h-.46c-.3.41-.86.83-.84 1.22a1.46 1.46 0 00.94 1.08c.36 0 1-.57 1.06-1s-.44-.86-.7-1.3zm.17 12.39A2.42 2.42 0 0132.91 26a2.41 2.41 0 11-2.47 2.29zm2.63-1.15h-.48c-.29.41-.84.85-.8 1.23a1.61 1.61 0 001 1.09.83.83 0 001-1c-.03-.48-.46-.89-.72-1.32z"/></g></g></svg>